<?xml version="1.0" encoding="UTF-8"?>
<svg width="100px" height="104px" viewBox="0 0 100 104" version="1.2" xmlns="http://www.w3.org/2000/svg" xmlns:xlink="http://www.w3.org/1999/xlink">
    <!-- Generator: sketchtool 52.5 (67469) - http://www.bohemiancoding.com/sketch -->
	<style type="text/css">
		.st0{fill:#FFFFFF;}
		.st1{fill:#ED2224;}
		.st2{fill:#37429A;}
		.st3{fill:#010101;}
	</style>
    
    <g id="New-wallet" stroke="none" stroke-width="1" fill="none" fill-rule="evenodd">
        <g id="3" transform="translate(-540.000000, -66.000000)">
            <g id="Group-18" transform="translate(479.000000, 7.000000)">
                <g id="doge" transform="translate(61.000000, 59.000000)">
                    <g id="Group-67">
                        <polygon id="Fill-1" fill="#B16B3A" points="91.5085279 0.0981070769 84.3396311 3.85471015 72.2146498 13.2898855 66.1078709 11.5425871 59.4700331 10.4069317 49.5156704 11.5423902 39.5614075 10.4069317 32.9235697 11.5425871 26.8166911 13.2898855 14.6917097 3.85471015 7.522813 0.0981070769 2.47815204 1.40853169 9.97481108e-06 5.07789785 9.97481108e-06 13.9887655 9.97481108e-06 19.1431286 1.7700402 24.9964702 1.9470931 30.8498117 5.84125935 38.5376886 6.10678882 46.6404825 4.33665884 55.7480763 3.4516936 66.9304517 7.87681904 74.006784 14.7801863 79.8169009 16.2846871 81.0832148 21.7720301 92.3529255 30.2990971 98.3469686 33.4545289 100.565012 49.5133762 103.883855 49.5133762 103.884839 49.5156704 103.884347 49.5180644 103.884839 49.5180644 103.883855 65.576812 100.565012 68.7322437 98.3469686 77.2594105 92.3529255 82.7466538 81.0832148 84.2511546 79.8169009 91.1545218 74.006784 95.579747 66.9304517 94.694682 55.7480763 92.9246518 46.6404825 93.1900815 38.5376886 97.0843475 30.8498117 97.2613007 24.9964702 99.0314306 19.1431286 99.0314306 5.07789785 96.5531888 1.40853169"></polygon>
                        <polygon id="Fill-2" fill="#CC8E58" points="65.5768319 58.0194855 61.7048098 45.5921625 57.3680612 42.7310671 49.5176853 39.0637686 49.5180843 39.0617994 49.5156904 39.0628825 49.5133962 39.0617994 49.5136954 39.0637686 41.6633196 42.7310671 37.326571 45.5921625 33.4545488 58.0194855 31.5628259 67.8041009 41.574843 57.4515594 46.8025418 55.7480763 49.5156904 39.0760763 52.228839 55.7480763 57.4566375 57.4515594 67.4686546 67.8041009"></polygon>
                        <polygon id="Fill-3" fill="#2D2113" points="21.5064707 15.1244898 14.3376738 7.17450831 6.72629441 4.90300062 3.71719315 5.60197908 2.56659869 10.4942375 2.56659869 19.3178683 6.63781783 26.4816345 13.7402823 30.8496837 20.7984586 24.8216714"></polygon>
                        <polygon id="Fill-4" fill="#2C1800" points="49.5180644 37.2708825 47.703746 19.8207409 49.5180644 20.1041132"></polygon>
                        <polygon id="Fill-5" fill="#A8633A" points="7.52282297 0.0981070769 2.47816202 1.40853169 1.99496222e-05 5.07789785 1.99496222e-05 13.9887655 2.56663859 15.8233994 2.56663859 10.4942671 3.71723305 5.60191015 6.72633431 4.90303015 14.3377137 7.17453785 21.5064109 15.1245194 20.7984985 24.8217009 13.7402225 30.8498117 9.11590005 45.5921625 17.7892975 48.9337502 24.7589973 41.5079778 27.2813278 42.0540455 25.3122003 36.5282855 27.8619615 33.891584 29.0294134 32.6843471 33.7199686 31.8981317 35.6671514 23.9480517 40.2250416 23.5986117 44.0917771 19.8207409 47.3054618 24.4722609 49.5180744 39.0618978 49.5180744 15.1245194 33.6535363 12.9404455 26.8167011 13.2898855 14.6916199 3.85471015"></polygon>
                        <polygon id="Fill-6" fill="#CC8E58" points="7.87682902 74.0067938 6.9116663 63.0417231 12.0449036 51.2478031 17.7892975 48.93376 9.11590005 45.5921723 30.9322084 15.8234092 20.7984985 24.8217108 13.7402225 30.8497231 5.84126932 38.5376 4.33676856 55.7480862 3.45170358 66.9304615"></polygon>
                        <polygon id="Fill-7" fill="#A8633A" points="27.9673055 31.1992025 35.6671614 23.9481009 33.7200783 31.8980825 29.0293236 32.6842978 27.4583906 34.3089132"></polygon>
                        <polygon id="Fill-8" fill="#EBE8DB" points="33.4545189 82.0878474 27.9672756 77.4139766 23.3650972 61.1645735 25.8652836 52.7777182 24.7589773 45.5920935 33.4545189 58.0195151 39.5613975 55.311232 46.8025118 55.7480074 46.1991355 59.8540505 41.1543748 62.2128935 39.5613975 66.1441674 40.3578861 69.6386658 41.8154055 71.2525489 38.2337501 79.9912074 34.1182428 79.9912074 30.9321884 75.7540135 30.9321884 78.8117366"></polygon>
                        <polygon id="Fill-9" fill="#5D2900" points="20.7984985 24.8217009 21.5065106 15.1245194 27.2813278 17.0464886 30.9322084 15.8233994"></polygon>
                        <polygon id="Fill-10" fill="#5D2900" points="19.9134236 16.3475692 20.7984886 24.8216615 21.5065007 15.12448 17.5238578 10.8000492"></polygon>
                        <polygon id="Fill-11" fill="#A8633A" points="0 19.1431483 1.94708312 30.8497329 5.84124937 38.5376098 13.7402025 30.8497329 6.63773804 26.4815852 2.56661864 19.3179175 2.56661864 15.8233206 0 13.9887852"></polygon>
                        <polygon id="Fill-12" fill="#CC8E58" points="27.2813377 42.0540062 25.3122103 36.5282462 29.0293236 32.6843077 33.7200783 31.8980923 35.6671614 23.9481108 49.5180843 39.0618585 41.6633196 42.7310277 37.326571 45.5921231 37.2380944 42.1850585 33.653646 37.2708431 28.4097881 39.1054769"></polygon>
                        <polygon id="Fill-13" fill="#A8633A" points="27.2813377 42.0540062 27.2813377 37.8606277 34.5828994 34.5723077 33.653646 37.2708431 28.4097881 39.1054769"></polygon>
                        <polygon id="Fill-14" fill="#CC8E58" points="41.6632897 42.7310277 39.5613975 28.1973169 49.5180544 39.0618585"></polygon>
                        <polygon id="Fill-15" fill="#D6B795" points="33.852833 46.6404923 29.5382285 45.3955446 27.2813278 42.0539569 24.7589973 41.5079877 23.3650174 42.9931815 24.7589973 45.5921723 26.1778144 47.6198892 33.4545388 58.0194954 37.326561 45.5921723"></polygon>
                        <polygon id="Fill-16" fill="#DBD5C3" points="38.897514 89.9504935 36.8947714 83.0311089 33.4545588 82.0878474 27.9673155 77.4139766 26.3488026 71.6996628 19.5151593 79.9911089 16.284717 81.0831458 21.7720601 92.3529551 30.2991271 98.3469982 36.8947714 95.0527705 43.2063331 91.9005243"></polygon>
                        <polygon id="Fill-17" fill="#2D2113" points="77.5248801 15.1244898 84.6937768 7.17450831 92.3051562 4.90300062 95.3142574 5.60197908 96.4647521 10.4942375 96.4647521 19.3178683 92.393533 26.4816345 85.2910685 30.8496837 78.2329919 24.8216714"></polygon>
                        <polygon id="Fill-18" fill="#2C1800" points="61.7933163 45.5921329 61.7933163 42.1849698 65.3777646 37.2708529 70.6216226 39.1054868 71.7499732 42.0539175 69.4931722 45.3956037 65.1785677 46.6404529"></polygon>
                        <g id="Group-28" transform="translate(61.744081, 37.226338)">
                            <g id="Group-21">
                                <mask id="mask-2" fill="white">
                                    <use xlink:href="#path-1"></use>
                                </mask>
                                <g id="Clip-20"></g>
                                <path d="M4.57959537,5.96031015 C6.21885582,5.96031015 7.5925868,4.84139323 7.96195406,3.33532554 C7.98130519,3.487744 7.99207798,3.64301785 7.99207798,3.80095015 C7.99207798,5.73975631 6.49635506,7.31149785 4.65131426,7.31149785 C2.8061737,7.31149785 1.31045078,5.73975631 1.31045078,3.80095015 C1.31045078,3.77121477 1.31184725,3.74187323 1.31254549,3.71223631 C1.80240846,5.02443323 3.08018176,5.96031015 4.57959537,5.96031015" id="Fill-19" fill="#4D2F00" mask="url(#mask-2)"></path>
                            </g>
                            <g id="Group-24">
                                <mask id="mask-4" fill="white">
                                    <use xlink:href="#path-3"></use>
                                </mask>
                                <g id="Clip-23"></g>
                                <path d="M4.57959537,5.96031015 C3.08018176,5.96031015 1.80240846,5.02443323 1.31254549,3.71223631 C1.35743214,1.81458708 2.83450217,0.290402462 4.65131426,0.290402462 C6.34603466,0.290402462 7.74500191,1.61677785 7.96195406,3.33532554 C7.5925868,4.84139323 6.21885582,5.96031015 4.57959537,5.96031015" id="Fill-22" fill="#2C1800" mask="url(#mask-4)"></path>
                            </g>
                            <g id="Group-27">
                                <mask id="mask-6" fill="white">
                                    <use xlink:href="#path-5"></use>
                                </mask>
                                <g id="Clip-26"></g>
                                <path d="M6.02320987,3.91031138 L7.74915144,3.38610215 C7.74915144,3.38610215 7.08522801,1.61704369 4.49656504,2.01020062 C4.49656504,2.01020062 5.82411264,3.124096 6.02320987,3.91031138" id="Fill-25" fill="#ECD9CB" mask="url(#mask-6)"></path>
                            </g>
                        </g>
                        <polygon id="Fill-29" fill="#2C1800" points="49.5133862 37.2708825 51.3277046 19.8207409 49.5133862 20.1041132"></polygon>
                        <polygon id="Fill-30" fill="#262626" points="57.8770359 62.2128935 52.8322752 59.8540505 49.5180444 59.8540505 49.5133563 59.8540505 46.1991255 59.8540505 41.1544646 62.2128935 39.5613875 66.1441674 40.3578762 69.6386658 44.539716 74.2689182 49.5133563 75.7526351 49.5133563 75.7540135 49.5157502 75.7534228 49.5180444 75.7540135 49.5180444 75.7526351 54.4917845 74.2689182 58.6735245 69.6386658 59.4701129 66.1441674"></polygon>
                        <polygon id="Fill-31" fill="#000000" points="51.7259689 68.7650658 53.473855 69.3766105 55.7528998 69.3766105 57.4344535 66.4499397 54.2041109 64.1785305 49.5180444 63.218432 49.5180444 63.2175458 49.5157502 63.2180382 49.5133563 63.2175458 49.5133563 63.218432 44.8272898 64.1785305 41.5969472 66.4499397 43.2784011 69.3766105 45.5574459 69.3766105 47.3054318 68.7650658 45.8009311 70.730752 41.8154953 71.2525982 44.539716 74.2688689 49.5133563 75.7526843 49.5133563 75.7540628 49.5157502 75.7533735 49.5180444 75.7540628 49.5180444 75.7526843 54.4917845 74.2688689 57.2160051 71.2525982 53.2305694 70.730752"></polygon>
                        <polygon id="Fill-32" fill="#000000" points="64.9130781 79.9911188 60.7976705 79.9911188 49.5180544 77.5023065 49.5180544 77.5013218 49.5157602 77.5018142 49.5133662 77.5013218 49.5133662 77.5023065 38.2337501 79.9911188 34.1182428 79.9911188 30.9321884 75.7540234 30.9321884 78.8117465 33.4545189 82.0878572 38.2337501 83.3982818 44.5397259 80.515328 49.5133662 81.9554265 49.5133662 81.9568049 49.5157602 81.9561157 49.5180544 81.9568049 49.5180544 81.9554265 54.4916947 80.515328 60.7976705 83.3982818 65.576802 82.0878572 68.0992322 78.8117465 68.0992322 75.7540234"></polygon>
                        <polygon id="Fill-33" fill="#918A85" points="60.7976805 83.3982818 54.4917047 80.515328 49.5156704 81.9561157 44.5397359 80.515328 38.2337601 83.3982818 44.5397359 86.761728 49.5133762 87.7218265 49.5133762 87.7227126 49.5156704 87.7223188 49.5180644 87.7227126 49.5180644 87.7218265 54.4917047 86.761728"></polygon>
                        <polygon id="Fill-34" fill="#5C524A" points="60.7976805 79.9911188 57.2160251 71.2525588 54.4917047 74.268928 49.5156704 75.7533342 44.5397359 74.268928 41.8154155 71.2525588 38.2337601 79.9911188 49.5156704 77.5018142"></polygon>
                        <polygon id="Fill-35" fill="#EBE8DB" points="60.7976805 83.3982818 54.4917047 86.761728 49.5156704 87.7223188 44.5397359 86.761728 38.2337601 83.3982818 36.8947415 83.0311188 38.897484 89.9505034 45.5574659 92.9645095 49.5133762 94.011648 49.5133762 94.0128295 49.5156704 94.0122388 49.5180644 94.0128295 49.5180644 94.011648 53.473875 92.9645095 60.1338568 89.9505034 62.1366991 83.0311188"></polygon>
                        <polygon id="Fill-36" fill="#A8633A" points="91.5085279 0.0981070769 84.3396311 3.85471015 72.2146498 13.2898855 65.3777148 12.9404455 49.5133762 15.1245194 49.5133762 39.0618978 51.7258891 24.4722609 54.9396735 19.8207409 58.8063092 23.5986117 63.3641994 23.9480517 65.3113823 31.8981317 70.0020372 32.6843471 71.1693893 33.891584 73.7192503 36.5282855 71.7499233 42.0540455 74.2723536 41.5079778 81.2420533 48.9337502 89.9154508 45.5921625 85.2911284 30.8498117 78.232952 24.8217009 77.5249399 15.1245194 84.6937369 7.17453785 92.3050165 4.90303015 95.3142175 5.60191015 96.464812 10.4942671 96.464812 15.8233994 99.0314306 13.9887655 99.0314306 5.07789785 96.5532886 1.40853169"></polygon>
                        <polygon id="Fill-37" fill="#CC8E58" points="91.1545218 74.0067938 92.1196845 63.0417231 86.9864473 51.2478031 81.2420533 48.93376 89.9154508 45.5921723 68.0992422 15.8234092 78.232952 24.8217108 85.2911284 30.8497231 93.1900815 38.5376 94.694682 55.7480862 95.579747 66.9304615"></polygon>
                        <polygon id="Fill-38" fill="#A8633A" points="72.2146597 13.2898757 66.1078809 11.5425772 59.4700431 10.4069218 49.5156804 11.5422818 39.5614174 10.4069218 32.9235796 11.5425772 26.8167011 13.2898757 33.6536361 12.9404357 49.5133862 15.1238203 49.5133862 15.1245095 49.5156804 15.1241157 49.5180744 15.1245095 49.5180744 15.1238203 65.3777247 12.9404357"></polygon>
                        <polygon id="Fill-39" fill="#A8633A" points="71.0641451 31.1992025 63.3642892 23.9481009 65.3113723 31.8980825 70.002127 32.6842978 71.5730599 34.3089132"></polygon>
                        <polygon id="Fill-40" fill="#EBE8DB" points="65.5768319 82.0878474 71.064175 77.4139766 75.6662536 61.1645735 73.1660672 52.7777182 74.2723735 45.5920935 65.5768319 58.0195151 59.4700531 55.311232 52.228839 55.7480074 52.8322153 59.8540505 57.8770758 62.2128935 59.4700531 66.1441674 58.6735644 69.6386658 57.216045 71.2525489 60.7977005 79.9912074 64.913108 79.9912074 68.0992622 75.7540135 68.0992622 78.8117366"></polygon>
                        <polygon id="Fill-41" fill="#A8633A" points="49.5180644 39.0567975 63.3642991 23.9480714 58.8063092 23.5986314 54.9396735 19.8207606 55.6479848 16.7843052 49.5180644 15.1257206 49.5180644 15.1244406 49.5157702 15.1251298 49.5133762 15.1244406 49.5133762 15.1257206 43.3833561 16.7843052 44.0918669 19.8207606 40.2251314 23.5986314 35.6672412 23.9480714 49.5133762 39.0567975 49.5133762 39.0618191 49.5157702 39.0592591 49.5180644 39.0618191"></polygon>
                        <polygon id="Fill-42" fill="#5D2900" points="78.232952 24.8217009 77.5248402 15.1245194 71.7500231 17.0464886 68.0992422 15.8233994"></polygon>
                        <polygon id="Fill-43" fill="#5D2900" points="79.118027 16.3475692 78.232962 24.8216615 77.5248502 15.12448 81.5075927 10.8000492"></polygon>
                        <polygon id="Fill-44" fill="#A8633A" points="96.464822 15.8233502 96.4647222 19.3179471 92.3936028 26.4815163 85.2911383 30.8497625 93.1900915 38.5376394 97.0842577 30.8497625 99.0314406 19.1431778 99.0314406 13.9887163"></polygon>
                        <polygon id="Fill-45" fill="#CC8E58" points="71.7500131 42.0540062 73.7192403 36.5282462 70.002127 32.6843077 65.3113723 31.8980923 63.3642892 23.9481108 49.5133662 39.0618585 57.3680312 42.7310277 61.7047798 45.5921231 61.7933562 42.1850585 65.3777048 37.2708431 70.6215627 39.1054769"></polygon>
                        <polygon id="Fill-46" fill="#A8633A" points="71.7500131 42.0540062 71.7500131 37.8606277 64.4484514 34.5723077 65.3777048 37.2708431 70.6215627 39.1054769"></polygon>
                        <polygon id="Fill-47" fill="#CC8E58" points="57.3680612 42.7310277 59.4700531 28.1973169 49.5133962 39.0618585"></polygon>
                        <polygon id="Fill-48" fill="#807664" points="53.4739149 92.9644603 49.5157103 94.012288 45.557406 92.9644603 43.2063431 91.9004849 30.299137 98.3469588 33.4545688 100.565002 49.5134161 103.883845 49.5134161 103.88483 49.5157103 103.884239 49.5181043 103.88483 49.5181043 103.883845 65.5767521 100.565002 68.7322836 98.3469588 55.8249778 91.9004849"></polygon>
                        <polygon id="Fill-49" fill="#DBD5C3" points="20.1140869 46.4568418 17.7892576 48.9337403 12.0448637 51.2477834 6.91172615 63.0417034 7.87678912 74.0068726 14.7801564 79.8168911 14.7801564 72.3469095 17.1166561 65.6606818 21.8383327 56.9930142 21.5064707 44.9150326"></polygon>
                        <polygon id="Fill-50" fill="#DBD5C3" points="86.9864373 51.2477538 81.2420433 48.9338092 78.9172141 46.4568123 77.52493 44.9151015 77.1929683 56.9929846 81.9147446 65.6606523 84.2512443 72.3469785 84.2512443 79.8168615 91.1545118 74.0068431 92.1196746 63.0416738"></polygon>
                        <polygon id="Fill-51" fill="#D6B795" points="74.2724433 41.5079483 71.7500131 42.054016 69.4932121 45.3956037 65.1786076 46.6404529 61.7047798 45.5921329 65.576802 58.019456 72.8535264 47.6198498 74.2724433 45.5921329 75.6663234 42.9931422"></polygon>
                        <polygon id="Fill-52" fill="#CFC7AF" points="77.5248801 44.9150622 75.6662736 42.9930929 74.2723935 45.5921822 73.1660872 52.7777083 75.6662736 61.1645637 72.6825083 71.6996529 79.5162514 79.9911975 82.7466937 81.083136 89.0785043 75.7540037"></polygon>
                        <polygon id="Fill-53" fill="#DBD5C3" points="79.5162314 79.9911188 72.6824884 71.6996726 71.064175 77.4139865 65.5768319 82.0878572 62.1367191 83.0311188 60.1338768 89.9505034 55.8249579 91.9005342 62.1367191 95.0527803 68.7322637 98.347008 77.2594304 92.3529649 82.7466738 81.0831557"></polygon>
                        <polygon id="Fill-54" fill="#CFC7AF" points="21.5064707 44.9150622 23.3650773 42.9930929 24.7589574 45.5921822 25.8652637 52.7777083 23.3650773 61.1645637 26.3488425 71.6996529 19.5150994 79.9911975 16.2847569 81.083136 9.9529463 75.7540037"></polygon>
                        <polygon id="Fill-55" fill="#2C1800" points="37.2381343 45.5921329 37.2381343 42.1849698 33.6535862 37.2708529 28.409828 39.1054868 27.2813776 42.0539175 29.5382784 45.3956037 33.8528829 46.6404529"></polygon>
                        <g id="Group-65" transform="translate(27.231234, 37.226338)">
                            <g id="Group-58">
                                <mask id="mask-8" fill="white">
                                    <use xlink:href="#path-7"></use>
                                </mask>
                                <g id="Clip-57"></g>
                                <path d="M5.47654035,5.96031015 C3.83718015,5.96031015 2.46344917,4.84139323 2.09408191,3.33532554 C2.07483053,3.487744 2.06395798,3.64301785 2.06395798,3.80095015 C2.06395798,5.73975631 3.55968091,7.31149785 5.40482146,7.31149785 C7.24986227,7.31149785 8.74558519,5.73975631 8.74558519,3.80095015 C8.74558519,3.77121477 8.74428846,3.74187323 8.74359023,3.71223631 C8.25372725,5.02443323 6.97585421,5.96031015 5.47654035,5.96031015" id="Fill-56" fill="#4D2F00" mask="url(#mask-8)"></path>
                            </g>
                            <g id="Group-61">
                                <mask id="mask-10" fill="white">
                                    <use xlink:href="#path-9"></use>
                                </mask>
                                <g id="Clip-60"></g>
                                <path d="M5.47654035,5.96031015 C6.97585421,5.96031015 8.25372725,5.02443323 8.74359023,3.71223631 C8.69860383,1.81458708 7.22163355,0.290402462 5.40482146,0.290402462 C3.71010106,0.290402462 2.31103406,1.61677785 2.09408191,3.33532554 C2.46344917,4.84139323 3.83718015,5.96031015 5.47654035,5.96031015" id="Fill-59" fill="#2C1800" mask="url(#mask-10)"></path>
                            </g>
                            <g id="Group-64">
                                <mask id="mask-12" fill="white">
                                    <use xlink:href="#path-11"></use>
                                </mask>
                                <g id="Clip-63"></g>
                                <path d="M4.0328261,3.91031138 L2.30698428,3.38610215 C2.30698428,3.38610215 2.97080796,1.61704369 5.55957068,2.01020062 C5.55957068,2.01020062 4.23192332,3.124096 4.0328261,3.91031138" id="Fill-62" fill="#ECD9CB" mask="url(#mask-12)"></path>
                            </g>
                        </g>
                        <polygon id="Fill-66" fill="#D9AA8B" points="49.5133862 39.0638178 49.5133862 39.0638178 46.1990557 59.8540702 49.5133862 59.8540702 49.5180744 59.8540702 52.8322053 59.8540702"></polygon>
                    </g>
                </g>
            </g>
        </g>
    </g>
</svg>